Coordinates
version=1
nRows=12
nColumns=34
inDegrees=yes

Units are S.I. units (second, meters, Newtons, ...)
If the header above contains a line with 'inDegrees', this indicates whether rotational values are in degrees (yes) or radians (no).

endheader
time	pelvis_tilt	pelvis_list	pelvis_rotation	pelvis_tx	pelvis_ty	pelvis_tz	hip_flexion_r	hip_adduction_r	hip_rotation_r	knee_angle_r	ankle_angle_r	subtalar_angle_r	mtp_angle_r	hip_flexion_l	hip_adduction_l	hip_rotation_l	knee_angle_l	ankle_angle_l	subtalar_angle_l	mtp_angle_l	lumbar_extension	lumbar_bending	lumbar_rotation	arm_flex_r	arm_add_r	arm_rot_r	elbow_flex_r	pro_sup_r	arm_flex_l	arm_add_l	arm_rot_l	elbow_flex_l	pro_sup_l
      0.00000000	     -1.05207099	      0.01533740	     -3.99154512	      1.79541867	      0.89933604	     -0.20028500	     -0.99697917	     -5.84100351	     -0.91554094	      3.25836968	      1.23588406	    -14.17152603	      0.00000000	     -3.20782719	     -3.67469782	     -5.81608517	      3.45999096	      8.04115362	     -4.95462171	      0.00000000	     -8.80676014	      1.86240210	     -4.85751807	     15.66994385	     -6.75297650	     42.90047617	     85.83668360	     99.03383911	      6.94811774	     -3.60836335	     26.96665138	     86.50615606	     99.11393597
      0.01666670	     -2.97297415	      0.23643795	     -3.85132781	      1.79730938	      0.89831712	     -0.20107664	      1.46386708	     -5.88337783	     -0.12464083	      3.92019381	      4.90482663	    -11.42386092	      0.00000000	     -0.06244449	     -3.26854571	     -5.53247679	      4.07667986	      8.97558998	     -3.75009806	      0.00000000	     -6.03707932	      2.32506505	     -4.28015481	     13.26483051	     -6.96330309	     39.43328193	     86.23219270	     98.14450682	      6.22571659	     -3.43973340	     27.14621700	     85.57977036	     98.04712385
      0.03333330	     -3.08259944	      1.06392509	     -4.01603818	      1.79741009	      0.89868977	     -0.20053068	      1.31496695	     -6.92041482	     -0.09020545	      3.10712030	      4.96246260	    -11.29464188	      0.00000000	      0.01331725	     -2.53048599	     -5.96592418	      3.75713555	      8.50257178	     -3.77661408	      0.00000000	     -5.98812125	      1.25891878	     -3.80816224	     12.91601615	     -6.97974142	     39.40311706	     85.99509711	     98.10419691	      6.44090591	     -3.70591850	     26.82590632	     85.41799590	     97.86136585
      0.05000000	     -2.46543139	      1.52170761	     -4.16494724	      1.79774688	      0.90024832	     -0.19987030	      0.30564036	     -7.55241182	      0.21624215	      2.41885180	      5.11483135	    -11.29796057	      0.00000000	     -1.44882512	     -1.91304279	     -5.78000169	      2.43596702	      7.61422983	     -4.34642050	      0.00000000	     -6.55967257	      0.69563611	     -3.03071530	     12.59693952	     -6.90962659	     39.03362281	     85.26926917	     98.00025638	      7.02562718	     -3.66371755	     26.75130063	     84.53954117	     97.35858117
      0.06666670	     -2.39733774	      1.77705659	     -4.09327568	      1.79827504	      0.90019724	     -0.19903263	     -0.11465685	     -7.76976937	      0.44005865	      1.83292815	      5.28080053	    -11.45258722	      0.00000000	     -1.85309384	     -1.61830531	     -5.37446903	      1.86115752	      7.69411611	     -4.52960655	      0.00000000	     -6.57297568	      0.43637758	     -2.81472105	     12.35937031	     -6.77176118	     39.31602758	     85.34290504	     97.99427215	      7.14814759	     -3.65172857	     26.90755391	     84.39958357	     97.27052677
      0.08333330	     -1.41818760	      1.81669859	     -4.04413502	      1.79859603	      0.90173097	     -0.19840464	     -1.61040481	     -7.75812515	      0.89527830	      1.11159048	      4.78877147	    -12.32987188	      0.00000000	     -3.39312178	     -1.47034445	     -4.60887402	      0.96603734	      6.73368018	     -5.71071902	      0.00000000	     -7.81492232	      0.34756951	     -2.38673120	     12.76457927	     -7.01365192	     39.83159491	     85.72592097	     97.88469466	      8.01644467	     -3.74850892	     27.98948249	     83.76577422	     96.97152727
      0.10000000	     -1.47327235	      1.87422526	     -3.94329899	      1.79932748	      0.90228757	     -0.19833399	     -1.77521624	     -7.72311774	      1.07903944	      0.81760596	      4.93542582	    -12.42725815	      0.00000000	     -3.42922267	     -1.44648332	     -4.37875967	      0.80773840	      6.70942941	     -5.73019281	      0.00000000	     -7.77978973	      0.30079293	     -2.29918662	     12.75673299	     -6.79341640	     39.97244939	     85.87855254	     97.86952394	      8.13976912	     -3.61769851	     28.13558287	     83.83670321	     96.93985770
      0.11666670	     -1.36586121	      1.94382992	     -3.80295338	      1.80007033	      0.90305267	     -0.19848815	     -2.24709551	     -7.73463346	      1.41943677	      0.36274097	      5.05159481	    -12.64618072	      0.00000000	     -3.70505440	     -1.38583644	     -3.96742408	      0.56973927	      6.46582751	     -5.82655382	      0.00000000	     -7.75601049	      0.21353301	     -2.24983490	     12.74016505	     -6.79577028	     40.24805308	     86.15427907	     97.83615216	      8.25849534	     -3.64862797	     28.47659903	     83.85433103	     96.88478120
      0.13333330	     -1.22785958	      1.93308926	     -3.71325149	      1.79993007	      0.90358068	     -0.19848364	     -2.61439579	     -7.69882990	      1.50395414	      0.00000000	      4.84569276	    -12.98291013	      0.00000000	     -4.01608145	     -1.38112675	     -3.82100971	      0.24633632	      6.12491639	     -6.15772142	      0.00000000	     -8.18597955	      0.23938677	     -2.25759100	     12.83959661	     -7.06406341	     40.52460683	     86.41933748	     97.77998265	      8.56556732	     -3.84461547	     28.83271388	     83.79611227	     96.80089522
      0.15000000	     -1.15716787	      1.93737431	     -3.59216649	      1.79976300	      0.90334126	     -0.19809925	     -2.73817016	     -7.66946035	      1.57778778	      0.02645868	      4.80568208	    -12.99803804	      0.00000000	     -4.08835544	     -1.38445632	     -3.76774093	      0.28237151	      6.05776610	     -6.17227958	      0.00000000	     -8.11741397	      0.22312246	     -2.18159317	     12.89348032	     -7.02805546	     40.57015277	     86.48188232	     97.77239388	      8.58644154	     -3.84616293	     28.87206106	     83.80826895	     96.78844488
      0.16666670	     -1.15661739	      1.94842437	     -3.58467512	      1.79950907	      0.90273330	     -0.19752460	     -2.73209941	     -7.62874789	      1.58368668	      0.00000000	      4.80435419	    -13.00742892	      0.00000000	     -4.10994505	     -1.36519339	     -3.75761486	      0.28673844	      6.04493937	     -6.17339225	      0.00000000	     -8.12933735	      0.22217730	     -2.18149270	     12.89484197	     -7.03845062	     40.57720200	     86.48716440	     97.77105430	      8.59734943	     -3.85146807	     28.87516948	     83.80663051	     96.78605708
      0.18333330	     -0.37058482	      1.79992865	     -3.56680949	      1.79864522	      0.90343383	     -0.19729724	     -3.55980388	     -7.46371424	      2.38090757	      0.00000000	      4.09150717	    -14.74035286	      0.00000000	     -5.08485368	     -1.47070699	     -3.11360882	      0.00000000	      5.07622633	     -7.41519825	      0.00000000	     -9.43631985	      0.28653116	     -1.84997215	     13.42839476	     -7.86516553	     41.68755932	     87.77742032	     97.45541232	      9.58152882	     -4.09561038	     29.81179996	     83.67356741	     96.27539084
